# xmcd
#
# Track frame offsets: 
#        150
#        26512
#        86062
#        124017
#        150332
#        188335
#        200282
#        232720
#        270505
#
# Disc length: 4245 seconds
#
# Revision: 1
# Processed by: cddbd v1.5.2PL0 Copyright (c) Steve Scherf et al.
# Submitted via: ExactAudioCopy v1.1
#
DISCID=5c109309
DTITLE=Symbian and Venja - Wellness For Your Spirit (2003)
DYEAR=2003
DGENRE=Ambient
TTITLE0=Symbian - Espirito Del Aqua
TTITLE1=Talking The Waters
TTITLE2=Ablution Ritual
TTITLE3=Venja - Northbound River
TTITLE4=Immortal Well
TTITLE5=Symbian - Quivering Silence
TTITLE6=Venja - Exploding The Depths
TTITLE7=Perpetual Flow
TTITLE8=Symbian - Myths Of Creation
EXTD=YEAR: 1996
EXTT0=
EXTT1=
EXTT2=
EXTT3=
EXTT4=
EXTT5=
EXTT6=
EXTT7=
EXTT8=
PLAYORDER=
